<mxfile host="app.diagrams.net" agent="Mozilla/5.0 (Windows NT 10.0; Win64; x64) AppleWebKit/537.36 (KHTML, like Gecko) Chrome/131.0.0.0 Safari/537.36" version="25.0.1">
  <diagram name="Page-1" id="Gl1p7M0z-proY0OCbwAC">
    <mxGraphModel dx="3745" dy="2843" grid="1" gridSize="10" guides="1" tooltips="1" connect="1" arrows="1" fold="1" page="1" pageScale="1" pageWidth="850" pageHeight="1100" math="0" shadow="0">
      <root>
        <mxCell id="0" />
        <mxCell id="1" parent="0" />
        <mxCell id="thYDRPqRy4rUzRUsmIiU-144" value="" style="endArrow=oval;html=1;rounded=0;endFill=0;endSize=15;startSize=6;sourcePerimeterSpacing=0;strokeWidth=2;fontColor=default;exitX=0.225;exitY=0.992;exitDx=0;exitDy=0;exitPerimeter=0;" parent="1" source="thYDRPqRy4rUzRUsmIiU-4" edge="1">
          <mxGeometry width="50" height="50" relative="1" as="geometry">
            <mxPoint x="-1450" y="-780" as="sourcePoint" />
            <mxPoint x="-1449.92" y="-762.3299999999999" as="targetPoint" />
          </mxGeometry>
        </mxCell>
        <mxCell id="thYDRPqRy4rUzRUsmIiU-124" value="" style="endArrow=oval;html=1;rounded=0;endFill=1;endSize=15;startSize=6;sourcePerimeterSpacing=0;strokeWidth=2;fontColor=default;exitX=0.077;exitY=0.01;exitDx=0;exitDy=0;exitPerimeter=0;" parent="1" source="thYDRPqRy4rUzRUsmIiU-4" edge="1">
          <mxGeometry width="50" height="50" relative="1" as="geometry">
            <mxPoint x="-1479" y="-890" as="sourcePoint" />
            <mxPoint x="-1479" y="-920" as="targetPoint" />
          </mxGeometry>
        </mxCell>
        <mxCell id="thYDRPqRy4rUzRUsmIiU-2" value="Objetos" style="html=1;overflow=block;blockSpacing=1;whiteSpace=wrap;fontSize=25;spacing=9;rounded=1;absoluteArcSize=1;arcSize=9;strokeWidth=NaN;lucidId=V5f-z4.bGhCA;" parent="1" vertex="1">
          <mxGeometry x="-1945.96" y="-1137" width="195" height="90" as="geometry" />
        </mxCell>
        <mxCell id="thYDRPqRy4rUzRUsmIiU-3" value="Usuários" style="html=1;overflow=block;blockSpacing=1;whiteSpace=wrap;fontSize=25;spacing=9;rounded=1;absoluteArcSize=1;arcSize=9;strokeWidth=NaN;lucidId=55f-Rb6oHbU7;" parent="1" vertex="1">
          <mxGeometry x="-1480" y="-1137" width="195" height="90" as="geometry" />
        </mxCell>
        <mxCell id="thYDRPqRy4rUzRUsmIiU-4" value="Ocorrencias" style="html=1;overflow=block;blockSpacing=1;whiteSpace=wrap;fontSize=20;spacing=9;rounded=1;absoluteArcSize=1;arcSize=9;strokeWidth=NaN;lucidId=-5f-95fiVLKn;" parent="1" vertex="1">
          <mxGeometry x="-1494" y="-889" width="195" height="105" as="geometry" />
        </mxCell>
        <mxCell id="thYDRPqRy4rUzRUsmIiU-6" value="" style="html=1;jettySize=18;whiteSpace=wrap;fontSize=13;strokeColor=#5E5E5E;strokeWidth=1.5;rounded=1;arcSize=12;edgeStyle=orthogonalEdgeStyle;startArrow=none;endArrow=none;exitX=0;exitY=0.5;entryX=1;entryY=0.5;lucidId=uDg-Tw7e3QSv;fontColor=default;exitDx=0;exitDy=0;entryDx=0;entryDy=0;" parent="1" source="thYDRPqRy4rUzRUsmIiU-3" target="thYDRPqRy4rUzRUsmIiU-16" edge="1">
          <mxGeometry width="100" height="100" relative="1" as="geometry">
            <Array as="points" />
          </mxGeometry>
        </mxCell>
        <mxCell id="thYDRPqRy4rUzRUsmIiU-7" value="1,1" style="text;html=1;resizable=0;labelBackgroundColor=default;align=center;verticalAlign=middle;fontStyle=1;fontColor=default;fontSize=13.3;" parent="thYDRPqRy4rUzRUsmIiU-6" vertex="1">
          <mxGeometry x="-0.6499766653977406" relative="1" as="geometry">
            <mxPoint x="-6" as="offset" />
          </mxGeometry>
        </mxCell>
        <mxCell id="thYDRPqRy4rUzRUsmIiU-8" value="" style="html=1;jettySize=18;whiteSpace=wrap;fontSize=13;strokeColor=#5E5E5E;strokeWidth=1.5;rounded=1;arcSize=12;edgeStyle=orthogonalEdgeStyle;startArrow=none;endArrow=none;exitX=0;exitY=0.5;entryX=1;entryY=0.5;lucidId=xbh-X-8PlkAa;exitDx=0;exitDy=0;entryDx=0;entryDy=0;" parent="1" source="thYDRPqRy4rUzRUsmIiU-16" target="thYDRPqRy4rUzRUsmIiU-2" edge="1">
          <mxGeometry width="100" height="100" relative="1" as="geometry">
            <Array as="points" />
            <mxPoint x="-2023.04" y="-1098" as="sourcePoint" />
          </mxGeometry>
        </mxCell>
        <mxCell id="thYDRPqRy4rUzRUsmIiU-9" value="0,n" style="text;html=1;resizable=0;labelBackgroundColor=default;align=center;verticalAlign=middle;fontStyle=1;fontSize=13.3;" parent="thYDRPqRy4rUzRUsmIiU-8" vertex="1">
          <mxGeometry x="0.49163880169466223" relative="1" as="geometry" />
        </mxCell>
        <mxCell id="thYDRPqRy4rUzRUsmIiU-16" value="proprietário" style="html=1;overflow=block;blockSpacing=1;whiteSpace=wrap;rhombus;fontSize=16.7;spacing=3.8;rounded=1;absoluteArcSize=1;arcSize=9;strokeWidth=NaN;lucidId=pbh-FsNAXiLB;" parent="1" vertex="1">
          <mxGeometry x="-1680" y="-1137" width="120" height="90" as="geometry" />
        </mxCell>
        <mxCell id="thYDRPqRy4rUzRUsmIiU-21" value="" style="html=1;jettySize=18;whiteSpace=wrap;fontSize=13;strokeColor=#5E5E5E;strokeWidth=1.5;rounded=1;arcSize=12;edgeStyle=orthogonalEdgeStyle;startArrow=none;endArrow=none;exitX=0.464;exitY=1.027;lucidId=xnh-Ly.hKtUM;fontColor=default;exitDx=0;exitDy=0;exitPerimeter=0;" parent="1" source="thYDRPqRy4rUzRUsmIiU-3" edge="1">
          <mxGeometry width="100" height="100" relative="1" as="geometry">
            <Array as="points" />
            <mxPoint x="-1164" y="-975.3599999999999" as="sourcePoint" />
            <mxPoint x="-1390" y="-890" as="targetPoint" />
          </mxGeometry>
        </mxCell>
        <mxCell id="thYDRPqRy4rUzRUsmIiU-22" value="0,n" style="text;html=1;resizable=0;labelBackgroundColor=default;align=center;verticalAlign=middle;fontStyle=1;fontColor=default;fontSize=13.3;" parent="thYDRPqRy4rUzRUsmIiU-21" vertex="1">
          <mxGeometry x="0.9104992137836012" relative="1" as="geometry">
            <mxPoint y="-23" as="offset" />
          </mxGeometry>
        </mxCell>
        <mxCell id="oQD3JM5eSi4RDsrfEUyp-1" value="&lt;span style=&quot;color: rgba(0, 0, 0, 0); font-family: monospace; font-size: 0px; text-align: start; background-color: rgb(251, 251, 251);&quot;&gt;%3CmxGraphModel%3E%3Croot%3E%3CmxCell%20id%3D%220%22%2F%3E%3CmxCell%20id%3D%221%22%20parent%3D%220%22%2F%3E%3CmxCell%20id%3D%222%22%20value%3D%221%2C1%22%20style%3D%22text%3Bhtml%3D1%3Bresizable%3D0%3BlabelBackgroundColor%3Ddefault%3Balign%3Dcenter%3BverticalAlign%3Dmiddle%3BfontStyle%3D1%3BfontColor%3Ddefault%3BfontSize%3D13.3%3B%22%20vertex%3D%221%22%20parent%3D%221%22%3E%3CmxGeometry%20x%3D%22-1164%22%20y%3D%22-1142.8600000000001%22%20as%3D%22geometry%22%2F%3E%3C%2FmxCell%3E%3C%2Froot%3E%3C%2FmxGraphModel%3E&lt;/span&gt;" style="edgeLabel;html=1;align=center;verticalAlign=middle;resizable=0;points=[];" vertex="1" connectable="0" parent="thYDRPqRy4rUzRUsmIiU-21">
          <mxGeometry x="-0.879" relative="1" as="geometry">
            <mxPoint as="offset" />
          </mxGeometry>
        </mxCell>
        <mxCell id="oQD3JM5eSi4RDsrfEUyp-7" value="&lt;span style=&quot;font-size: 13px; font-weight: 700;&quot;&gt;1,1&lt;/span&gt;" style="edgeLabel;html=1;align=center;verticalAlign=middle;resizable=0;points=[];" vertex="1" connectable="0" parent="thYDRPqRy4rUzRUsmIiU-21">
          <mxGeometry x="-0.9132" y="1" relative="1" as="geometry">
            <mxPoint y="8" as="offset" />
          </mxGeometry>
        </mxCell>
        <mxCell id="thYDRPqRy4rUzRUsmIiU-23" value="Agentes" style="html=1;overflow=block;blockSpacing=1;whiteSpace=wrap;fontSize=25;spacing=9;rounded=1;absoluteArcSize=1;arcSize=9;strokeWidth=NaN;lucidId=fBI_09UvGAJg;" parent="1" vertex="1">
          <mxGeometry x="-1930" y="-881.5" width="195" height="90" as="geometry" />
        </mxCell>
        <mxCell id="thYDRPqRy4rUzRUsmIiU-24" value="" style="html=1;jettySize=18;whiteSpace=wrap;fontSize=13;strokeColor=#5E5E5E;strokeWidth=1.5;rounded=1;arcSize=12;edgeStyle=orthogonalEdgeStyle;startArrow=none;endArrow=none;exitX=1;exitY=0.5;entryX=0;entryY=0.5;lucidId=UCI_ttGz-4oe;fontColor=default;entryDx=0;entryDy=0;exitDx=0;exitDy=0;" parent="1" source="thYDRPqRy4rUzRUsmIiU-23" target="thYDRPqRy4rUzRUsmIiU-28" edge="1">
          <mxGeometry width="100" height="100" relative="1" as="geometry">
            <Array as="points" />
          </mxGeometry>
        </mxCell>
        <mxCell id="thYDRPqRy4rUzRUsmIiU-25" value="1,n" style="text;html=1;resizable=0;labelBackgroundColor=default;align=center;verticalAlign=middle;fontStyle=1;fontColor=default;fontSize=13.3;" parent="thYDRPqRy4rUzRUsmIiU-24" vertex="1">
          <mxGeometry x="-0.5185027185607671" relative="1" as="geometry" />
        </mxCell>
        <mxCell id="thYDRPqRy4rUzRUsmIiU-26" value="" style="html=1;jettySize=18;whiteSpace=wrap;fontSize=13;strokeColor=#5E5E5E;strokeWidth=1.5;rounded=1;arcSize=12;edgeStyle=orthogonalEdgeStyle;startArrow=none;endArrow=none;exitX=1;exitY=0.5;entryX=-0.006;entryY=0.5;entryPerimeter=0;lucidId=.DI_~nHE-mGe;fontColor=default;exitDx=0;exitDy=0;" parent="1" source="thYDRPqRy4rUzRUsmIiU-28" target="thYDRPqRy4rUzRUsmIiU-4" edge="1">
          <mxGeometry width="100" height="100" relative="1" as="geometry">
            <Array as="points" />
          </mxGeometry>
        </mxCell>
        <mxCell id="thYDRPqRy4rUzRUsmIiU-27" value="0,n" style="text;html=1;resizable=0;labelBackgroundColor=default;align=center;verticalAlign=middle;fontStyle=1;fontColor=default;fontSize=13.3;" parent="thYDRPqRy4rUzRUsmIiU-26" vertex="1">
          <mxGeometry x="0.7736621613211254" relative="1" as="geometry">
            <mxPoint x="-9" as="offset" />
          </mxGeometry>
        </mxCell>
        <mxCell id="thYDRPqRy4rUzRUsmIiU-71" value="&lt;font style=&quot;font-size: 18px;&quot;&gt;cpf&lt;/font&gt;" style="text;html=1;align=center;verticalAlign=middle;resizable=0;points=[];autosize=1;strokeColor=none;fillColor=none;" parent="1" vertex="1">
          <mxGeometry x="-1520" y="-1196" width="50" height="40" as="geometry" />
        </mxCell>
        <mxCell id="thYDRPqRy4rUzRUsmIiU-72" value="&lt;font style=&quot;font-size: 18px;&quot;&gt;nome&lt;/font&gt;" style="text;html=1;align=center;verticalAlign=middle;resizable=0;points=[];autosize=1;strokeColor=none;fillColor=none;" parent="1" vertex="1">
          <mxGeometry x="-1467" y="-1204" width="70" height="40" as="geometry" />
        </mxCell>
        <mxCell id="thYDRPqRy4rUzRUsmIiU-73" value="&lt;font style=&quot;font-size: 18px;&quot;&gt;dtnasc&lt;/font&gt;" style="text;html=1;align=center;verticalAlign=middle;resizable=0;points=[];autosize=1;strokeColor=none;fillColor=none;" parent="1" vertex="1">
          <mxGeometry x="-1412.5" y="-1204" width="80" height="40" as="geometry" />
        </mxCell>
        <mxCell id="thYDRPqRy4rUzRUsmIiU-74" value="&lt;font style=&quot;font-size: 18px;&quot;&gt;telefone&lt;/font&gt;" style="text;html=1;align=center;verticalAlign=middle;resizable=0;points=[];autosize=1;strokeColor=none;fillColor=none;" parent="1" vertex="1">
          <mxGeometry x="-1345" y="-1204" width="90" height="40" as="geometry" />
        </mxCell>
        <mxCell id="thYDRPqRy4rUzRUsmIiU-75" value="&lt;font style=&quot;font-size: 18px;&quot;&gt;email&lt;/font&gt;" style="text;html=1;align=center;verticalAlign=middle;resizable=0;points=[];autosize=1;strokeColor=none;fillColor=none;" parent="1" vertex="1">
          <mxGeometry x="-1285" y="-1140" width="70" height="40" as="geometry" />
        </mxCell>
        <mxCell id="thYDRPqRy4rUzRUsmIiU-76" value="&lt;font style=&quot;font-size: 18px;&quot;&gt;num_serie&lt;/font&gt;" style="text;html=1;align=center;verticalAlign=middle;resizable=0;points=[];autosize=1;strokeColor=none;fillColor=none;" parent="1" vertex="1">
          <mxGeometry x="-2046" y="-1135" width="110" height="40" as="geometry" />
        </mxCell>
        <mxCell id="thYDRPqRy4rUzRUsmIiU-77" value="&lt;font style=&quot;font-size: 18px;&quot;&gt;marca&lt;/font&gt;" style="text;html=1;align=center;verticalAlign=middle;resizable=0;points=[];autosize=1;strokeColor=none;fillColor=none;" parent="1" vertex="1">
          <mxGeometry x="-2000" y="-1203" width="70" height="40" as="geometry" />
        </mxCell>
        <mxCell id="thYDRPqRy4rUzRUsmIiU-78" value="&lt;font style=&quot;font-size: 18px;&quot;&gt;modelo&lt;/font&gt;" style="text;html=1;align=center;verticalAlign=middle;resizable=0;points=[];autosize=1;strokeColor=none;fillColor=none;" parent="1" vertex="1">
          <mxGeometry x="-1920" y="-1203" width="80" height="40" as="geometry" />
        </mxCell>
        <mxCell id="thYDRPqRy4rUzRUsmIiU-79" value="&lt;font style=&quot;font-size: 18px;&quot;&gt;cor&lt;/font&gt;" style="text;html=1;align=center;verticalAlign=middle;resizable=0;points=[];autosize=1;" parent="1" vertex="1">
          <mxGeometry x="-1830" y="-1203" width="50" height="40" as="geometry" />
        </mxCell>
        <mxCell id="thYDRPqRy4rUzRUsmIiU-82" value="&lt;font style=&quot;font-size: 18px;&quot;&gt;observação&lt;/font&gt;" style="text;html=1;align=center;verticalAlign=middle;resizable=0;points=[];autosize=1;strokeColor=none;fillColor=none;" parent="1" vertex="1">
          <mxGeometry x="-1766" y="-1163" width="120" height="40" as="geometry" />
        </mxCell>
        <mxCell id="thYDRPqRy4rUzRUsmIiU-85" value="&lt;font style=&quot;font-size: 18px;&quot;&gt;matrícula&lt;/font&gt;" style="text;html=1;align=center;verticalAlign=middle;resizable=0;points=[];autosize=1;strokeColor=none;fillColor=none;" parent="1" vertex="1">
          <mxGeometry x="-1950" y="-951.55" width="100" height="40" as="geometry" />
        </mxCell>
        <mxCell id="thYDRPqRy4rUzRUsmIiU-86" value="&lt;font style=&quot;font-size: 18px;&quot;&gt;nome&lt;/font&gt;" style="text;html=1;align=center;verticalAlign=middle;resizable=0;points=[];autosize=1;strokeColor=none;fillColor=none;fontColor=default;" parent="1" vertex="1">
          <mxGeometry x="-1825" y="-951.55" width="70" height="40" as="geometry" />
        </mxCell>
        <mxCell id="thYDRPqRy4rUzRUsmIiU-96" value="" style="endArrow=oval;html=1;rounded=0;endFill=0;endSize=15;startSize=6;sourcePerimeterSpacing=0;strokeWidth=2;exitX=0.026;exitY=0;exitDx=0;exitDy=0;exitPerimeter=0;" parent="1" edge="1">
          <mxGeometry width="50" height="50" relative="1" as="geometry">
            <mxPoint x="-1429.9299999999998" y="-1137" as="sourcePoint" />
            <mxPoint x="-1430" y="-1167" as="targetPoint" />
          </mxGeometry>
        </mxCell>
        <mxCell id="thYDRPqRy4rUzRUsmIiU-97" value="" style="endArrow=oval;html=1;rounded=0;endFill=0;endSize=15;startSize=6;sourcePerimeterSpacing=0;strokeWidth=2;exitX=0.026;exitY=0;exitDx=0;exitDy=0;exitPerimeter=0;" parent="1" edge="1">
          <mxGeometry width="50" height="50" relative="1" as="geometry">
            <mxPoint x="-1369.9299999999996" y="-1137" as="sourcePoint" />
            <mxPoint x="-1369.9999999999998" y="-1167" as="targetPoint" />
          </mxGeometry>
        </mxCell>
        <mxCell id="thYDRPqRy4rUzRUsmIiU-98" value="" style="endArrow=oval;html=1;rounded=0;endFill=0;endSize=15;startSize=6;sourcePerimeterSpacing=0;strokeWidth=2;exitX=0.026;exitY=0;exitDx=0;exitDy=0;exitPerimeter=0;" parent="1" edge="1">
          <mxGeometry width="50" height="50" relative="1" as="geometry">
            <mxPoint x="-1298.9299999999998" y="-1137" as="sourcePoint" />
            <mxPoint x="-1299" y="-1167" as="targetPoint" />
          </mxGeometry>
        </mxCell>
        <mxCell id="thYDRPqRy4rUzRUsmIiU-99" value="" style="endArrow=oval;html=1;rounded=0;endFill=0;endSize=15;startSize=6;sourcePerimeterSpacing=0;strokeWidth=2;" parent="1" edge="1">
          <mxGeometry width="50" height="50" relative="1" as="geometry">
            <mxPoint x="-1284" y="-1100" as="sourcePoint" />
            <mxPoint x="-1254" y="-1100" as="targetPoint" />
          </mxGeometry>
        </mxCell>
        <mxCell id="thYDRPqRy4rUzRUsmIiU-101" value="" style="endArrow=oval;html=1;rounded=0;endFill=1;endSize=15;startSize=6;sourcePerimeterSpacing=0;strokeWidth=2;" parent="1" edge="1">
          <mxGeometry width="50" height="50" relative="1" as="geometry">
            <mxPoint x="-1476" y="-1137" as="sourcePoint" />
            <mxPoint x="-1494" y="-1155" as="targetPoint" />
          </mxGeometry>
        </mxCell>
        <mxCell id="thYDRPqRy4rUzRUsmIiU-107" value="" style="endArrow=oval;html=1;rounded=0;endFill=1;endSize=15;startSize=6;sourcePerimeterSpacing=0;strokeWidth=2;" parent="1" edge="1">
          <mxGeometry width="50" height="50" relative="1" as="geometry">
            <mxPoint x="-1900" y="-877.55" as="sourcePoint" />
            <mxPoint x="-1900.2" y="-907.55" as="targetPoint" />
          </mxGeometry>
        </mxCell>
        <mxCell id="thYDRPqRy4rUzRUsmIiU-108" value="" style="endArrow=oval;html=1;rounded=0;endFill=0;endSize=15;startSize=6;sourcePerimeterSpacing=0;strokeWidth=2;fontColor=default;" parent="1" edge="1">
          <mxGeometry width="50" height="50" relative="1" as="geometry">
            <mxPoint x="-1790.17" y="-877.55" as="sourcePoint" />
            <mxPoint x="-1789.88" y="-907.55" as="targetPoint" />
          </mxGeometry>
        </mxCell>
        <mxCell id="thYDRPqRy4rUzRUsmIiU-111" value="" style="endArrow=oval;html=1;rounded=0;endFill=1;endSize=15;startSize=6;sourcePerimeterSpacing=0;strokeWidth=2;entryX=0.541;entryY=1.083;entryDx=0;entryDy=0;entryPerimeter=0;" parent="1" edge="1">
          <mxGeometry width="50" height="50" relative="1" as="geometry">
            <mxPoint x="-1945.96" y="-1092.24" as="sourcePoint" />
            <mxPoint x="-1975.96" y="-1092.24" as="targetPoint" />
          </mxGeometry>
        </mxCell>
        <mxCell id="thYDRPqRy4rUzRUsmIiU-113" value="" style="endArrow=oval;html=1;rounded=0;endFill=0;endSize=15;startSize=6;sourcePerimeterSpacing=0;strokeWidth=2;" parent="1" edge="1">
          <mxGeometry width="50" height="50" relative="1" as="geometry">
            <mxPoint x="-1880.96" y="-1137" as="sourcePoint" />
            <mxPoint x="-1880.96" y="-1164" as="targetPoint" />
          </mxGeometry>
        </mxCell>
        <mxCell id="thYDRPqRy4rUzRUsmIiU-114" value="" style="endArrow=oval;html=1;rounded=0;endFill=0;endSize=15;startSize=6;sourcePerimeterSpacing=0;strokeWidth=2;" parent="1" edge="1">
          <mxGeometry width="50" height="50" relative="1" as="geometry">
            <mxPoint x="-1806.13" y="-1137" as="sourcePoint" />
            <mxPoint x="-1806.13" y="-1164" as="targetPoint" />
          </mxGeometry>
        </mxCell>
        <mxCell id="thYDRPqRy4rUzRUsmIiU-115" value="" style="endArrow=oval;html=1;rounded=0;endFill=0;endSize=15;startSize=6;sourcePerimeterSpacing=0;strokeWidth=2;" parent="1" edge="1">
          <mxGeometry width="50" height="50" relative="1" as="geometry">
            <mxPoint x="-1759.96" y="-1137" as="sourcePoint" />
            <mxPoint x="-1759.96" y="-1164" as="targetPoint" />
          </mxGeometry>
        </mxCell>
        <mxCell id="thYDRPqRy4rUzRUsmIiU-116" value="" style="endArrow=oval;html=1;rounded=0;endFill=0;endSize=15;startSize=6;sourcePerimeterSpacing=0;strokeWidth=2;" parent="1" edge="1">
          <mxGeometry width="50" height="50" relative="1" as="geometry">
            <mxPoint x="-1750.96" y="-1117" as="sourcePoint" />
            <mxPoint x="-1720.96" y="-1117" as="targetPoint" />
          </mxGeometry>
        </mxCell>
        <mxCell id="thYDRPqRy4rUzRUsmIiU-117" value="" style="endArrow=oval;html=1;rounded=0;endFill=0;endSize=15;startSize=6;sourcePerimeterSpacing=0;strokeWidth=2;fontColor=default;" parent="1" edge="1">
          <mxGeometry width="50" height="50" relative="1" as="geometry">
            <mxPoint x="-1357.58" y="-784" as="sourcePoint" />
            <mxPoint x="-1357.5" y="-764" as="targetPoint" />
          </mxGeometry>
        </mxCell>
        <mxCell id="thYDRPqRy4rUzRUsmIiU-125" value="&lt;font style=&quot;font-size: 18px;&quot;&gt;idocorrência&lt;/font&gt;" style="text;html=1;align=center;verticalAlign=middle;resizable=0;points=[];autosize=1;strokeColor=none;fillColor=none;fontColor=default;" parent="1" vertex="1">
          <mxGeometry x="-1536.5" y="-958" width="120" height="40" as="geometry" />
        </mxCell>
        <mxCell id="thYDRPqRy4rUzRUsmIiU-126" value="" style="endArrow=oval;html=1;rounded=0;endFill=0;endSize=15;startSize=6;sourcePerimeterSpacing=0;strokeWidth=2;fontColor=default;" parent="1" edge="1">
          <mxGeometry width="50" height="50" relative="1" as="geometry">
            <mxPoint x="-1352.53" y="-889" as="sourcePoint" />
            <mxPoint x="-1352.74" y="-920" as="targetPoint" />
          </mxGeometry>
        </mxCell>
        <mxCell id="thYDRPqRy4rUzRUsmIiU-128" value="&lt;font style=&quot;font-size: 18px;&quot;&gt;data&lt;/font&gt;" style="text;html=1;align=center;verticalAlign=middle;resizable=0;points=[];autosize=1;strokeColor=none;fillColor=none;fontColor=default;" parent="1" vertex="1">
          <mxGeometry x="-1382.5" y="-958" width="60" height="40" as="geometry" />
        </mxCell>
        <mxCell id="thYDRPqRy4rUzRUsmIiU-134" value="" style="endArrow=oval;html=1;rounded=0;endFill=0;endSize=15;startSize=6;sourcePerimeterSpacing=0;strokeWidth=2;fontColor=default;" parent="1" edge="1">
          <mxGeometry width="50" height="50" relative="1" as="geometry">
            <mxPoint x="-1308.29" y="-889" as="sourcePoint" />
            <mxPoint x="-1308.5" y="-920" as="targetPoint" />
          </mxGeometry>
        </mxCell>
        <mxCell id="thYDRPqRy4rUzRUsmIiU-135" value="&lt;font style=&quot;font-size: 18px;&quot;&gt;rua&lt;/font&gt;" style="text;html=1;align=center;verticalAlign=middle;resizable=0;points=[];autosize=1;strokeColor=none;fillColor=none;fontColor=default;" parent="1" vertex="1">
          <mxGeometry x="-1335" y="-958" width="50" height="40" as="geometry" />
        </mxCell>
        <mxCell id="thYDRPqRy4rUzRUsmIiU-136" value="" style="endArrow=oval;html=1;rounded=0;endFill=0;endSize=15;startSize=6;sourcePerimeterSpacing=0;strokeWidth=2;fontColor=default;exitX=0.998;exitY=0.085;exitDx=0;exitDy=0;exitPerimeter=0;" parent="1" edge="1">
          <mxGeometry width="50" height="50" relative="1" as="geometry">
            <mxPoint x="-1299" y="-849.995" as="sourcePoint" />
            <mxPoint x="-1268.61" y="-849.92" as="targetPoint" />
          </mxGeometry>
        </mxCell>
        <mxCell id="thYDRPqRy4rUzRUsmIiU-137" value="&lt;font style=&quot;font-size: 18px;&quot;&gt;número&lt;/font&gt;" style="text;html=1;align=center;verticalAlign=middle;resizable=0;points=[];autosize=1;strokeColor=none;fillColor=none;fontColor=default;" parent="1" vertex="1">
          <mxGeometry x="-1304" y="-889" width="80" height="40" as="geometry" />
        </mxCell>
        <mxCell id="thYDRPqRy4rUzRUsmIiU-139" value="" style="endArrow=oval;html=1;rounded=0;endFill=0;endSize=15;startSize=6;sourcePerimeterSpacing=0;strokeWidth=2;fontColor=default;" parent="1" edge="1">
          <mxGeometry width="50" height="50" relative="1" as="geometry">
            <mxPoint x="-1299" y="-800" as="sourcePoint" />
            <mxPoint x="-1269" y="-800" as="targetPoint" />
          </mxGeometry>
        </mxCell>
        <mxCell id="thYDRPqRy4rUzRUsmIiU-140" value="&lt;font style=&quot;font-size: 18px;&quot;&gt;bairro&lt;/font&gt;" style="text;html=1;align=center;verticalAlign=middle;resizable=0;points=[];autosize=1;strokeColor=none;fillColor=none;fontColor=default;" parent="1" vertex="1">
          <mxGeometry x="-1304" y="-840" width="70" height="40" as="geometry" />
        </mxCell>
        <mxCell id="thYDRPqRy4rUzRUsmIiU-141" value="&lt;font style=&quot;font-size: 18px;&quot;&gt;descrição&lt;/font&gt;" style="text;html=1;align=center;verticalAlign=middle;resizable=0;points=[];autosize=1;strokeColor=none;fillColor=none;fontColor=default;" parent="1" vertex="1">
          <mxGeometry x="-1408.5" y="-760" width="100" height="40" as="geometry" />
        </mxCell>
        <mxCell id="thYDRPqRy4rUzRUsmIiU-145" value="&lt;font style=&quot;font-size: 18px;&quot;&gt;[providência]&lt;/font&gt;" style="text;html=1;align=center;verticalAlign=middle;resizable=0;points=[];autosize=1;strokeColor=none;fillColor=none;fontColor=default;" parent="1" vertex="1">
          <mxGeometry x="-1518.5" y="-760" width="130" height="40" as="geometry" />
        </mxCell>
        <mxCell id="thYDRPqRy4rUzRUsmIiU-28" value="responsável" style="html=1;overflow=block;blockSpacing=1;whiteSpace=wrap;rhombus;fontSize=16.7;spacing=3.8;rounded=1;absoluteArcSize=1;arcSize=9;strokeWidth=NaN;lucidId=9DI_XCg~5uv-;" parent="1" vertex="1">
          <mxGeometry x="-1680" y="-881.5" width="120" height="90" as="geometry" />
        </mxCell>
        <mxCell id="SRoM4nyybVC7W2SIl7-2-2" value="&lt;font style=&quot;font-size: 18px;&quot;&gt;tipo&lt;/font&gt;" style="text;html=1;align=center;verticalAlign=middle;resizable=0;points=[];autosize=1;strokeColor=none;fillColor=none;" parent="1" vertex="1">
          <mxGeometry x="-1785" y="-1203" width="50" height="40" as="geometry" />
        </mxCell>
        <mxCell id="WEghnWoXnJy_bBKYDiE6-1" value="" style="endArrow=oval;html=1;rounded=0;endFill=0;endSize=15;startSize=6;sourcePerimeterSpacing=0;strokeWidth=2;" parent="1" edge="1">
          <mxGeometry width="50" height="50" relative="1" as="geometry">
            <mxPoint x="-1940" y="-1137" as="sourcePoint" />
            <mxPoint x="-1950" y="-1160" as="targetPoint" />
          </mxGeometry>
        </mxCell>
      </root>
    </mxGraphModel>
  </diagram>
</mxfile>
